<svg id="Layer_1" data-name="Layer 1" xmlns="http://www.w3.org/2000/svg" viewBox="0 0 21.8 21.8">
  <defs>
    <style>
      .cls-1 {
        fill: #fff;
      }
    </style>
  </defs>
  <title>assets</title>
  <path class="cls-1" d="M2.72,0H1.36A1.36,1.36,0,0,0,0,1.36V20.44A1.36,1.36,0,0,0,1.36,21.8H20.44a1.36,1.36,0,0,0,1.36-1.36V1.36A1.36,1.36,0,0,0,20.44,0H2.72ZM10.9,8.18A2.72,2.72,0,1,1,8.17,10.9,2.72,2.72,0,0,1,10.9,8.18m8.18,10.9H2.72V10.9H5.45a5.45,5.45,0,0,0,10.9,0h2.73Zm0-12.27H15V2.73h4.09Z"/>
</svg>
