<svg id="Layer_1" data-name="Layer 1" xmlns="http://www.w3.org/2000/svg" viewBox="0 0 22.33 22.33">
  <defs>
    <style>
      .cls-1 {
        fill: #fff;
      }
    </style>
  </defs>
  <title>assets</title>
  <path class="cls-1" d="M20.94,0H1.4A1.4,1.4,0,0,0,0,1.4V20.94a1.4,1.4,0,0,0,1.4,1.39H20.94a1.39,1.39,0,0,0,1.39-1.39V1.4A1.4,1.4,0,0,0,20.94,0m-4.2,8.36c0,.12,0,.25,0,.37A8,8,0,0,1,4.42,15.48a5.07,5.07,0,0,0,.68,0,5.73,5.73,0,0,0,3.52-1.2,2.8,2.8,0,0,1-2.6-2,4.18,4.18,0,0,0,.61.05,3.76,3.76,0,0,0,.9-.1A2.57,2.57,0,0,1,5.58,9.55v0c0,.21.51.34,1,.35A3.11,3.11,0,0,1,5,7.52,2.84,2.84,0,0,1,5.36,6.1a8,8,0,0,0,5.81,3,2.84,2.84,0,0,1,2.75-3.47A2.86,2.86,0,0,1,16,6.47a5.62,5.62,0,0,0,1.79-.68,2.83,2.83,0,0,1-1.24,1.56,5.88,5.88,0,0,0,1.62-.44,5.72,5.72,0,0,1-1.41,1.45"/>
</svg>
