<svg id="Layer_1" data-name="Layer 1" xmlns="http://www.w3.org/2000/svg" viewBox="0 0 63.79 63.79">
  <defs>
    <style>
      .cls-1 {
        fill: #fff;
      }
    </style>
  </defs>
  <title>assets</title>
  <g>
    <path class="cls-1" d="M38.88,25.86a1.55,1.55,0,0,0-3.1,0,1.53,1.53,0,0,0,1.54,1.55,1.47,1.47,0,0,0,1.56-1.57"/>
    <path class="cls-1" d="M31.89,0a31.9,31.9,0,1,0,31.9,31.9A31.9,31.9,0,0,0,31.89,0m-1,21.47L20.15,45.24a.26.26,0,0,1-.22.14.26.26,0,0,1-.23-.14L9,21.47a.25.25,0,0,1,0-.24.26.26,0,0,1,.21-.11h5.22a.25.25,0,0,1,.23.15l5.25,12.05,5.24-12a.25.25,0,0,1,.23-.15h5.25a.25.25,0,0,1,.22.35m13.37,2.32a.24.24,0,0,1,.19-.24l.17,0a7.38,7.38,0,0,0,1.91-.76,8.14,8.14,0,0,0,1.26-1.28l.06-.09a.23.23,0,0,1,.2-.1h2.2a.25.25,0,0,1,.25.25V34.4a.25.25,0,0,1-.25.25H47.08a.25.25,0,0,1-.25-.25V25.85a15,15,0,0,1-2,.52l-.27.05a.21.21,0,0,1-.2-.05.25.25,0,0,1-.09-.19Zm-12,2.39a4.82,4.82,0,0,1,5.11-5.06c3.18,0,5.09,2,5.09,5.3a9.73,9.73,0,0,1-1.86,5.36,26.84,26.84,0,0,1-2.9,3.37l-.14.09a.24.24,0,0,1-.14,0,.33.33,0,0,1-.16,0L35.1,33.51a.28.28,0,0,1-.09-.19.23.23,0,0,1,.09-.19l.2-.18a21.26,21.26,0,0,0,2-2.1h-.22a4.69,4.69,0,0,1-4.81-4.67M51,44.72a.25.25,0,0,1-.25.24H34.17a.25.25,0,0,1-.25-.24V41.26a.25.25,0,0,1,.25-.25H50.72a.25.25,0,0,1,.25.25Z"/>
  </g>
</svg>
